<?xml version="1.0" encoding="utf-8" ?><svg xmlns="http://www.w3.org/2000/svg" xmlns:xlink="http://www.w3.org/1999/xlink" width="391" height="371" viewBox="0 0 391 371"><clipPath id="cl_5"><rect width="391" height="371"/></clipPath><g clip-path="url(#cl_5)"><path fill="#2F51A3" transform="translate(-51 -8)" d="M216.871 18.8166C222.748 24.996 233.05 33.1292 239.861 39.607C241.901 42.2737 255.599 54.4986 258.655 56.4071C261.146 58.0295 283.593 79.3921 288.112 83.3282C319.176 110.388 349.325 139.075 380.245 166.291L345.132 166.293C340.828 163.674 330.947 154.39 326.849 150.67L296.142 122.765L246.982 78.4143C237.618 69.9849 226.061 60.1075 217.409 51.2425C189.844 74.3315 159.551 103.116 132.877 127.443L132.764 313.218L112.533 313.214C111.613 258.031 112.485 200.96 112.408 145.613C105.187 151.789 97.0511 159.717 89.6916 166.248C78.8056 166.689 65.2868 166.31 54.1955 166.311C75.3695 145.272 104.034 121.356 126.544 100.534C126.594 90.5883 126.954 80.354 126.201 70.4779C126.113 69.3171 123.463 70.6822 121.734 69.1134C121.592 61.7322 121.552 54.3495 121.615 46.9672L153.593 46.9965C153.493 54.4443 154.269 61.5133 153.313 69.0153C152.152 69.4079 151.411 69.8248 150.336 70.392C148.625 72.7449 149.273 76.7152 149.441 79.7368C157.309 73.3455 166.823 64.2474 174.629 57.224C188.831 44.5556 202.912 31.7525 216.871 18.8166Z"/><path fill="#2F51A3" transform="translate(-51 -8)" d="M160.126 172.649C183.984 171.941 209.966 172.983 234.038 172.573C241.859 172.44 270.926 172.158 277.221 173.131L277.293 174.371C275.049 177.495 265.306 179.752 262.007 183.509C257.452 188.697 258.327 197.335 258.361 204.079C258.431 218.376 258.537 232.701 258.47 247.031C248.388 246.953 228.986 246.267 219.644 247.181C218.723 248.421 218.881 252.274 218.834 254.062L218.905 312.599L160.21 312.585L160.126 172.649ZM184.09 242.821C194.086 238.192 193.978 232.394 193.034 221.516C191.883 208.242 198.687 189.654 180.091 188.969C165.684 195.684 172.085 206.944 170.81 221.361C169.868 232.018 170.286 243.398 184.09 242.821Z"/><path fill="#2F51A3" transform="translate(-51 -8)" d="M179.118 195.648C181 195.802 182.164 196.044 184.013 196.442C185.922 199.179 185.448 231.992 184.461 236.469C181.464 236.158 180.523 236.328 178.832 233.975C177.761 228.037 177.848 201.359 179.118 195.648Z"/><path fill="#2F51A3" transform="translate(-51 -8)" d="M164.012 112.81C190.896 112.195 218.204 113.112 245.133 112.709C255.247 112.557 267.222 112.24 277.109 113.058C277.152 120.267 278.104 162.383 276.472 166.676L274.414 167.035L160.013 167.075C160.048 160.781 159.43 115.559 160.628 113.322L164.012 112.81ZM185.245 157.632C189.216 155.592 191.14 154.715 192.422 150.284C195.817 138.548 192.889 125.376 178.221 127.314C169.058 132.629 168.382 143.176 172.593 152.523C174.755 157.321 180.318 158.19 185.245 157.632Z"/><path fill="#2F51A3" transform="translate(-51 -8)" d="M180.047 133.156C181.976 133.404 182.217 133.471 183.872 134.489C186.285 138.109 186.241 148.819 183.256 152.082C181.646 151.733 181.296 151.55 179.822 150.801C179.296 149.818 178.895 148.773 178.628 147.69C177.694 143.876 177.921 136.615 180.047 133.156Z"/><path fill="#2F51A3" transform="translate(-51 -8)" d="M255.508 251.951L328.067 252.069L327.984 313.175C318.21 313.399 307.867 313.265 298.047 313.3L225.223 313.302C225.415 292.901 225.4 272.498 225.175 252.098L255.508 251.951ZM252.301 301.057L309.58 301.175L309.53 264.214L252.351 264.198C252.33 276.398 252.163 288.883 252.301 301.057ZM241.408 274.592C242.998 272.761 243.409 272.31 243.578 269.849C241.504 266.129 240.228 266.328 236.155 266.182C234.218 269.172 234.229 268.276 234.164 271.578C235.981 274.322 238.394 274.432 241.408 274.592Z"/><path fill="#F36229" transform="translate(-51 -8)" d="M267.697 15.2126C325.862 63.5162 381.705 116.25 439.558 165.141C427.597 165.11 413.746 165.431 401.95 165.013C382.51 150.122 355.576 124.672 335.896 107.558L292.807 70.105C285.279 63.5586 274.713 54.8335 267.891 47.9097L258.655 56.4071C255.599 54.4986 241.901 42.2737 239.861 39.607L267.697 15.2126Z"/><path fill="#F36229" transform="translate(-51 -8)" d="M345.246 324.626C382.998 325.789 412.556 337.365 439.375 364.043C422.07 355.374 406.254 348.102 387.015 344.143C323.924 331.157 264.024 361.792 203.132 372.5C193.798 374.141 184.3 375.152 174.891 376.06C139.101 379.567 99.2055 371.304 73.7366 344.586C138.318 381.52 209.431 349.82 274.444 333.505C299.401 327.242 319.522 324.632 345.246 324.626Z"/><path fill="#2F51A3" transform="translate(-51 -8)" d="M264.977 222.14C294.801 221.389 325.189 222.543 355.07 222.097C368.356 221.899 382.687 221.837 395.901 222.365L396.035 312.59L337.305 312.575C336.868 312.563 335.541 312.261 335.034 312.159C333.883 309.353 334.361 303.9 334.447 300.664C344.081 298.586 351.138 296.663 359.24 290.655C378.25 276.556 377.708 251.71 358.767 237.454C348.709 229.959 336.075 226.789 323.67 228.65C310.305 230.587 301.336 236.378 293.37 247.01L265.197 247.012C264.964 238.948 265.043 230.248 264.977 222.14Z"/><path fill="#2F51A3" transform="translate(-51 -8)" d="M272.746 183.007C281.147 181.947 300.631 182.449 309.691 182.442L376.088 182.453C388.113 182.534 396.273 182.649 396.103 197.421C396.029 203.823 396.018 210.478 395.935 216.904L388.767 216.94L265.059 216.896C264.935 209.439 264.232 199.544 265.285 192.448C266.029 187.434 268.792 185.534 272.746 183.007ZM369.971 205.042C372.286 202.916 372.014 203.809 372.264 201.196C368.009 196.207 341.554 197.963 334.543 198.543C332.947 201.206 333.05 200.217 333.368 202.798C337.003 206.702 363.56 205.104 369.971 205.042Z"/><path fill="#2F51A3" transform="translate(-51 -8)" d="M324.066 235.353C363.861 230.275 382.94 274.966 343.671 291.686C340.786 292.471 337.418 293.133 334.463 293.785L334.448 247.017C324.13 246.769 313.02 246.994 302.643 247.023C309.972 239.513 313.921 237.59 324.066 235.353Z"/><path fill="#2F51A3" transform="translate(-51 -8)" d="M346.68 344.869C372.74 341.55 413.65 351.964 435.555 367.824C418.05 360.709 406.815 357.154 388.091 353.59C356.898 346.912 321.416 351.122 290.366 356.636C302.929 349.648 332.243 345.804 346.68 344.869Z"/><path fill="#2F51A3" transform="translate(-51 -8)" d="M78.7315 339.717C82.4381 339.889 99.4988 345.966 104.719 347.189C114.874 349.566 123.574 350.794 134.038 351.651C150.658 352.955 167.371 352.459 183.885 350.172C189.524 349.374 205.065 346.422 209.822 346.382L207.623 347.411C167.571 363.623 116.222 361.901 78.7315 339.717Z"/></g></svg>